PathFileType	4	(X/Y/Z)	/Users/itak/Documents/Research/Walk-IL/dataset/trc/00480_00167.trc
DataRate	CameraRate	NumFrames	NumMarkers	Units	OrigDataRate	OrigDataStartFrame	OrigNumFrames
100.000000	100.000000	4	53	mm	100.000000	229	613
Frame#	Time	RPSI			LPSI			L3			STRN			T10			C7			CLAV			RBAK			LBAK			LSHO			LUPA			LAEL			LAOL			LWTS			LWPS			LFRA			LIFD			LHPS			LHTS			RSHO			RUPA			RAEL			RAOL			RWTS			RWPS			RFRA			RIFD			RHTS			RHPS			RBHD			LFHD			RFHD			LBHD			LHIP			RHIP			RASI			LASI			LKNE			LTHI			LANK			LTIP			LTOE			LMT1			LMT5			LHEE			RKNE			RTHI			RANK			RTIP			RTOE			RMT1			RMT5			RHEE			
		X1	Y1	Z1	X2	Y2	Z2	X3	Y3	Z3	X4	Y4	Z4	X5	Y5	Z5	X6	Y6	Z6	X7	Y7	Z7	X8	Y8	Z8	X9	Y9	Z9	X10	Y10	Z10	X11	Y11	Z11	X12	Y12	Z12	X13	Y13	Z13	X14	Y14	Z14	X15	Y15	Z15	X16	Y16	Z16	X17	Y17	Z17	X18	Y18	Z18	X19	Y19	Z19	X20	Y20	Z20	X21	Y21	Z21	X22	Y22	Z22	X23	Y23	Z23	X24	Y24	Z24	X25	Y25	Z25	X26	Y26	Z26	X27	Y27	Z27	X28	Y28	Z28	X29	Y29	Z29	X30	Y30	Z30	X31	Y31	Z31	X32	Y32	Z32	X33	Y33	Z33	X34	Y34	Z34	X35	Y35	Z35	X36	Y36	Z36	X37	Y37	Z37	X38	Y38	Z38	X39	Y39	Z39	X40	Y40	Z40	X41	Y41	Z41	X42	Y42	Z42	X43	Y43	Z43	X44	Y44	Z44	X45	Y45	Z45	X46	Y46	Z46	X47	Y47	Z47	X48	Y48	Z48	X49	Y49	Z49	X50	Y50	Z50	X51	Y51	Z51	X52	Y52	Z52	X53	Y53	Z53	

230	2.29	-568.0972900390625	952.815185546875	-42.35309600830078	-538.5836181640625	934.78076171875	-181.1153411865234	-539.938232421875	1053.045043945312	-83.60429382324219	-250.7184143066406	1235.502075195312	-57.31404113769531	-540.2322998046875	1178.036987304688	-79.633544921875	-459.0262451171875	1440.511840820312	-50.79838180541992	-281.185302734375	1350.15380859375	-63.4151611328125	-530.5234985351562	1324.939208984375	39.31639099121094	-494.9674377441406	1396.880981445312	-153.3172454833984	-389.9532470703125	1418.057250976562	-226.1392974853516	-396.4921264648438	1309.338134765625	-331.31298828125	-358.9209594726562	1109.347412109375	-389.9357604980469	-432.2174377441406	1068.480590820312	-327.5175476074219	-206.2540130615234	962.2506103515625	-344.3513488769531	-240.6837463378906	925.8689575195312	-399.81298828125	-306.6581726074219	1036.329956054688	-399.6443481445312	-120.562370300293	831.1048583984375	-358.4602355957031	-196.7824401855469	863.6402587890625	-401.3857421875	-151.4089813232422	900.0370483398438	-356.9349670410156	-394.8265686035156	1407.385986328125	105.8195114135742	-410.9292297363281	1353.253784179688	184.2109069824219	-372.3215637207031	1082.019287109375	280.8740234375	-418.625732421875	1051.052001953125	243.2818145751953	-232.8076782226562	895.9645385742188	270.7412719726562	-298.1323547363281	877.751953125	326.935546875	-358.8165588378906	1027.400756835938	299.2701416015625	-201.8186798095703	747.4550170898438	308.0042419433594	-199.4673461914062	808.12353515625	300.9902648925781	-265.9788818359375	797.5509033203125	340.6751403808594	-322.6495361328125	1633.786865234375	27.94706726074219	-299.8495788574219	1648.510498046875	-176.5508270263672	-227.7594146728516	1659.657104492188	-68.14568328857422	-434.7283935546875	1622.240112304688	-109.734619140625	-364.4230651855469	846.1161499023438	-264.5947265625	-476.7437133789062	857.7152099609375	121.8034210205078	-362.9266662597656	899.0867919921875	80.05706787109375	-305.6590881347656	892.1655883789062	-164.3066253662109	-160.9758605957031	480.18994140625	-224.1327514648438	-195.7301330566406	637.655517578125	-243.8845520019531	-357.1006774902344	94.02994537353516	-187.4730377197266	-216.5269317626953	326.3023681640625	-227.7329406738281	-128.003173828125	57.80102157592773	-142.2298736572266	-195.8130035400391	72.36612701416016	-105.1736831665039	-213.7026519775391	65.57691192626953	-214.7760772705078	-390.8822631835938	113.1511611938477	-119.5055084228516	-424.9823913574219	464.645751953125	99.96817016601562	-425.5368041992188	724.1826782226562	136.1449584960938	-516.1141967773438	45.07856369018555	104.0974884033203	-430.9808349609375	316.9195556640625	107.8832931518555	-306.2616577148438	47.13265609741211	33.73868179321289	-373.0909423828125	51.18774032592773	6.19236421585083	-381.3590393066406	45.39967727661133	116.2227249145508	-586.4674072265625	39.84954071044922	67.10178375244141	
231	2.3	-557.6734619140625	952.2817993164062	-43.62105178833008	-527.7620239257812	933.7042236328125	-182.0460510253906	-529.6571044921875	1051.645141601562	-84.16947937011719	-241.6417846679688	1235.15478515625	-58.49519348144531	-530.9320678710938	1176.709838867188	-80.03863525390625	-450.5564575195312	1439.445922851562	-52.07719039916992	-272.5786743164062	1349.644775390625	-65.23532867431641	-521.0845336914062	1324.16455078125	39.12125396728516	-486.79931640625	1395.0341796875	-154.2163696289062	-382.3961181640625	1416.271240234375	-227.7149658203125	-389.3061828613281	1307.1357421875	-332.38671875	-351.5331115722656	1107.281127929688	-390.6436462402344	-423.9757690429688	1066.055786132812	-327.452392578125	-196.8900146484375	962.1876831054688	-345.304443359375	-231.2020721435547	925.0911254882812	-400.3178405761719	-298.5448303222656	1034.814453125	-400.3529663085938	-110.1676025390625	831.5411376953125	-358.9273681640625	-186.9973297119141	863.1719970703125	-401.6705932617188	-141.4979553222656	900.26611328125	-357.7147521972656	-385.0613098144531	1407.544677734375	104.3099899291992	-399.9249267578125	1353.8857421875	183.2978363037109	-356.3335571289062	1083.45947265625	280.7977905273438	-402.52099609375	1051.801391601562	243.694091796875	-214.5227203369141	898.901611328125	270.5692443847656	-279.3131103515625	880.32421875	327.2823181152344	-341.9901123046875	1029.1298828125	299.3087158203125	-181.8956756591797	750.7948608398438	308.5993957519531	-180.3219757080078	811.376708984375	300.9460754394531	-246.4190673828125	800.4739990234375	341.1922912597656	-314.273681640625	1633.32177734375	24.73098373413086	-293.2169189453125	1647.388916015625	-179.99853515625	-220.2692565917969	1659.208862304688	-72.26316070556641	-427.4210205078125	1620.825561523438	-111.9341506958008	-353.6194763183594	845.2258911132812	-265.0481262207031	-467.5399780273438	857.4447631835938	120.9782409667969	-353.1948547363281	898.2179565429688	79.76617431640625	-294.84521484375	891.3722534179688	-164.5065307617188	-147.4431915283203	480.5827941894531	-224.3017425537109	-185.0510559082031	637.32177734375	-244.1048889160156	-316.9428100585938	82.81893157958984	-190.2960052490234	-192.6436614990234	324.1017150878906	-228.8987121582031	-86.368896484375	60.90696334838867	-143.7542419433594	-155.1815032958984	70.84923553466797	-107.1420669555664	-171.9100189208984	63.89121246337891	-216.9111785888672	-352.2055053710938	99.26341247558594	-122.6949768066406	-420.8404541015625	463.8633728027344	99.56217956542969	-417.7521362304688	723.5031127929688	135.3256683349609	-516.2132568359375	45.22185897827148	103.8223114013672	-428.4781188964844	316.1826171875	107.4987182617188	-306.2916870117188	47.16899490356445	33.83900833129883	-373.1231384277344	51.10090255737305	6.122169971466064	-381.6153259277344	45.57790756225586	116.1265029907227	-586.5917358398438	40.0137825012207	66.67927551269531	
232	2.31	-547.17529296875	951.4400024414062	-44.91841125488281	-516.8394775390625	932.3348388671875	-182.9757995605469	-519.2842407226562	1049.988403320312	-84.84529113769531	-232.5180206298828	1234.50830078125	-59.74822616577148	-521.5780029296875	1175.15087890625	-80.62381744384766	-442.0058288574219	1438.09521484375	-53.44818878173828	-263.9088134765625	1348.81640625	-67.14067840576172	-511.6116027832031	1323.17138671875	38.80782699584961	-478.5317077636719	1392.872314453125	-155.1795959472656	-374.7309875488281	1414.150756835938	-229.3516387939453	-382.039306640625	1304.670043945312	-333.5616455078125	-344.0480346679688	1104.968872070312	-391.5336608886719	-415.8004760742188	1063.41748046875	-327.7413024902344	-187.7141876220703	961.6378173828125	-346.1566772460938	-221.7294769287109	923.9768676757812	-400.9710083007812	-290.3941955566406	1033.024047851562	-401.2185668945312	-100.1582870483398	831.3156127929688	-358.967529296875	-177.2704772949219	862.2371826171875	-401.9659423828125	-131.8724212646484	899.8795166015625	-358.1682739257812	-375.2680358886719	1407.441284179688	102.6769790649414	-388.9013366699219	1354.246948242188	182.2300567626953	-340.4360656738281	1084.669921875	280.3659362792969	-386.4268188476562	1052.302856445312	243.6890258789062	-196.1476745605469	901.7515258789062	270.0317687988281	-260.5131225585938	882.7462768554688	327.1214904785156	-325.2200317382812	1030.626220703125	298.9460754394531	-161.9009552001953	754.068359375	308.9124145507812	-161.0659332275391	814.562744140625	300.6310729980469	-226.8497924804688	803.2911987304688	341.2808227539062	-305.9100036621094	1632.542724609375	21.4035701751709	-286.5684204101562	1645.908325195312	-183.5418548583984	-212.8090362548828	1658.452514648438	-76.47710418701172	-420.0931396484375	1618.987548828125	-114.2423858642578	-342.8182067871094	843.8980712890625	-265.4478454589844	-458.2618103027344	856.9238891601562	120.1277923583984	-343.384033203125	897.1624145507812	79.47495269775391	-283.8909606933594	890.2211303710938	-164.7318267822266	-134.7629241943359	480.2432250976562	-224.6352386474609	-174.9296722412109	636.143798828125	-244.4287109375	-276.2314758300781	72.66473388671875	-193.9028930664062	-169.1868896484375	321.9586791992188	-230.41162109375	-45.2370491027832	64.95043182373047	-145.5707550048828	-114.8018112182617	70.21086883544922	-109.5401382446289	-130.1648864746094	63.3083610534668	-219.5153198242188	-312.8738403320312	86.29891967773438	-126.6782913208008	-416.1209411621094	462.9189147949219	99.21482849121094	-409.7747802734375	722.6091918945312	134.5092468261719	-516.273681640625	45.38504028320312	103.5058135986328	-425.5746154785156	315.2886657714844	107.1410675048828	-306.2717590332031	47.17580795288086	33.94935989379883	-373.1112670898438	51.02200317382812	6.05994701385498	-381.8452758789062	45.71986389160156	116.0337982177734	-586.6911010742188	40.22559356689453	66.2236328125	
233	2.32	-536.5989990234375	950.2486572265625	-46.25196075439453	-505.8099975585938	930.6312866210938	-183.9183807373047	-508.8936157226562	1048.065673828125	-85.64936065673828	-223.3375549316406	1233.557983398438	-61.07107162475586	-512.16552734375	1173.34130859375	-81.39807891845703	-433.3752136230469	1436.446655273438	-54.91037750244141	-255.1749267578125	1347.668579101562	-69.12848663330078	-502.1084289550781	1321.94384765625	38.37543106079102	-470.1684875488281	1390.385131835938	-156.2032165527344	-366.9574890136719	1411.700317382812	-231.0415954589844	-374.6790161132812	1301.94775390625	-334.8353881835938	-336.4627990722656	1102.4130859375	-392.604736328125	-407.6913757324219	1060.563598632812	-328.362548828125	-178.7239074707031	960.5867309570312	-346.9440612792969	-212.2875671386719	922.520263671875	-401.7890319824219	-282.2168579101562	1030.955200195312	-402.2445983886719	-90.50850677490234	830.4406127929688	-358.6566467285156	-167.5911102294922	860.853759765625	-402.3111572265625	-122.5212631225586	898.8826904296875	-358.3558959960938	-365.4437866210938	1407.055419921875	100.9254302978516	-377.8580932617188	1354.3251953125	181.0148010253906	-324.5989074707031	1085.629028320312	279.5799560546875	-370.3421325683594	1052.532470703125	243.3010864257812	-177.6626434326172	904.5033569335938	269.0580139160156	-241.6732940673828	885.0194702148438	326.4200439453125	-308.4696350097656	1031.869262695312	298.1806335449219	-141.8018646240234	757.2759399414062	308.8966369628906	-141.6517181396484	817.6818237304688	299.9920654296875	-207.2103271484375	806.0172119140625	340.9172668457031	-297.542724609375	1631.439575195312	17.96352577209473	-279.9023132324219	1644.041381835938	-187.1934509277344	-205.3712463378906	1657.377319335938	-80.79292297363281	-412.7343139648438	1616.703857421875	-116.6560516357422	-331.9812316894531	842.1171264648438	-265.7749328613281	-448.8909606933594	856.1384887695312	119.2543029785156	-333.4834594726562	895.9188232421875	79.18750762939453	-272.7904052734375	888.7052612304688	-164.9765472412109	-122.9133071899414	479.1600341796875	-225.1357574462891	-165.3126525878906	634.13037109375	-244.8636474609375	-235.1849670410156	63.77083969116211	-198.1460113525391	-146.2465362548828	319.9416809082031	-232.2146606445312	-4.732022285461426	70.10093688964844	-147.693115234375	-74.77642822265625	70.65106201171875	-112.3278884887695	-88.676513671875	64.00650787353516	-222.5379180908203	-273.0626831054688	74.47476959228516	-131.264892578125	-410.7773132324219	461.7932739257812	98.94554138183594	-401.5762023925781	721.4978637695312	133.7215576171875	-516.2930297851562	45.57378005981445	103.1422500610352	-422.2263793945312	314.2195129394531	106.8191375732422	-306.1882629394531	47.14171981811523	34.07030487060547	-373.042724609375	50.95098876953125	6.008430004119873	-382.0325012207031	45.81703948974609	115.9508056640625	-586.7548217773438	40.50607681274414	65.72289276123047	
